{
	"asset":{
		"generator":"Khronos glTF Blender I/O v4.1.62",
		"version":"2.0"
	},
	"scene":0,
	"scenes":[
		{
			"name":"Scene",
			"nodes":[
				43
			]
		}
	],
	"nodes":[
		{
			"name":"head0_end",
			"rotation":[
				1.0430792940496758e-07,
				-6.402842700481415e-10,
				3.055902197957039e-10,
				1
			],
			"translation":[
				-3.026798367500305e-09,
				8.243324279785156,
				2.6220307063340442e-06
			]
		},
		{
			"children":[
				0
			],
			"name":"head0",
			"rotation":[
				0.4256817400455475,
				0.0023014149628579617,
				0.0015404490986838937,
				0.9048687219619751
			],
			"scale":[
				1,
				1.0000001192092896,
				0.9999999403953552
			],
			"translation":[
				1.3038495616513046e-08,
				6.533956527709961,
				-5.014655357626907e-12
			]
		},
		{
			"children":[
				1
			],
			"name":"neck1",
			"rotation":[
				0.10575201362371445,
				-8.597460937620482e-11,
				-0.00042988607310689986,
				0.994392454624176
			],
			"scale":[
				0.9999999403953552,
				1,
				1
			],
			"translation":[
				-1.1175870895385742e-08,
				7.242491245269775,
				1.6999911167658865e-06
			]
		},
		{
			"children":[
				2
			],
			"name":"neck0",
			"rotation":[
				-0.18950854241847992,
				-0.0033919797278940678,
				-0.005333823151886463,
				0.9818587303161621
			],
			"scale":[
				1,
				0.9999998807907104,
				1
			],
			"translation":[
				-3.725290298461914e-09,
				7.464249134063721,
				9.272480383515358e-07
			]
		},
		{
			"name":"leg_front_left_toe_end",
			"rotation":[
				6.531237275184468e-15,
				1.5925620289181097e-07,
				1.5832486610634078e-07,
				1
			],
			"translation":[
				-3.3238757168874145e-07,
				3.000002861022949,
				-1.1137869933008915e-06
			]
		},
		{
			"children":[
				4
			],
			"name":"leg_front_left_toe",
			"rotation":[
				-0.6189025044441223,
				0.020053885877132416,
				0.020054183900356293,
				0.7849556803703308
			],
			"scale":[
				0.9999999403953552,
				1,
				0.9999999403953552
			],
			"translation":[
				-4.3213367462158203e-07,
				7.506997108459473,
				6.258487701416016e-07
			]
		},
		{
			"children":[
				5
			],
			"name":"leg_front_left_ankle",
			"rotation":[
				0.04598565772175789,
				-0.29975926876068115,
				-0.03677038848400116,
				0.9521962404251099
			],
			"scale":[
				1.000000238418579,
				1,
				1
			],
			"translation":[
				-1.0728836059570312e-06,
				11.476609230041504,
				4.76837158203125e-07
			]
		},
		{
			"children":[
				6
			],
			"name":"leg_front_left_bot0",
			"rotation":[
				2.6319486323700403e-07,
				-0.9483256936073303,
				-0.15849651396274567,
				0.2748767137527466
			],
			"scale":[
				1,
				1.0000003576278687,
				1
			],
			"translation":[
				3.949196525354637e-08,
				5.600003242492676,
				-6.813734216848388e-07
			]
		},
		{
			"children":[
				7
			],
			"name":"leg_front_left_top1",
			"rotation":[
				-2.1941760053323378e-07,
				0.2834137976169586,
				-0.33161333203315735,
				0.8998384475708008
			],
			"scale":[
				0.9999999403953552,
				0.9999999403953552,
				0.9999999403953552
			],
			"translation":[
				-1.2218952178955078e-06,
				10.14013957977295,
				-2.294778823852539e-06
			]
		},
		{
			"children":[
				8
			],
			"name":"leg_front_left_top0",
			"rotation":[
				-0.4302407503128052,
				-0.5769720673561096,
				-0.690917432308197,
				0.06803934276103973
			],
			"scale":[
				0.9999998211860657,
				0.9999997615814209,
				0.9999999403953552
			],
			"translation":[
				0.2885478436946869,
				7.1276116371154785,
				1.354062557220459
			]
		},
		{
			"name":"leg_front_right_toe_end",
			"rotation":[
				-7.450505989936573e-09,
				-2.398350034127361e-07,
				-2.3779762159392703e-07,
				1
			],
			"translation":[
				1.2051714293193072e-07,
				3.0000083446502686,
				-1.362585408060113e-06
			]
		},
		{
			"children":[
				10
			],
			"name":"leg_front_right_toe",
			"rotation":[
				-0.6189022660255432,
				-0.020055469125509262,
				-0.020055554807186127,
				0.7849557995796204
			],
			"scale":[
				0.9999999403953552,
				0.9999999403953552,
				1
			],
			"translation":[
				-6.556510925292969e-07,
				7.506992340087891,
				1.1324882507324219e-06
			]
		},
		{
			"children":[
				11
			],
			"name":"leg_front_right_ankle",
			"rotation":[
				0.04598534107208252,
				0.2997613251209259,
				0.03677065670490265,
				0.9521955847740173
			],
			"scale":[
				0.9999999403953552,
				1,
				0.9999999403953552
			],
			"translation":[
				1.1920928955078125e-07,
				11.476615905761719,
				-4.291534423828125e-06
			]
		},
		{
			"children":[
				12
			],
			"name":"leg_front_right_bot0",
			"rotation":[
				1.9641406368009484e-07,
				0.9483257532119751,
				0.15849648416042328,
				0.2748766839504242
			],
			"scale":[
				0.9999999403953552,
				1.0000001192092896,
				0.9999999403953552
			],
			"translation":[
				-1.728561755953706e-07,
				5.599998474121094,
				-1.576934550939768e-06
			]
		},
		{
			"children":[
				13
			],
			"name":"leg_front_right_top1",
			"rotation":[
				-3.354118973675213e-07,
				-0.2878838777542114,
				0.3282965421676636,
				0.8996356725692749
			],
			"scale":[
				0.9999999403953552,
				0.9999998807907104,
				0.9999998807907104
			],
			"translation":[
				1.7881393432617188e-07,
				10.080763816833496,
				-2.041459083557129e-06
			]
		},
		{
			"children":[
				14
			],
			"name":"leg_front_right_top0",
			"rotation":[
				-0.43153440952301025,
				0.5793392062187195,
				0.6878772974014282,
				0.07049157470464706
			],
			"scale":[
				1,
				0.9999999403953552,
				0.9999999403953552
			],
			"translation":[
				-0.3051929175853729,
				7.130690574645996,
				1.3527910709381104
			]
		},
		{
			"children":[
				3,
				9,
				15
			],
			"name":"body_top1",
			"rotation":[
				-0.08879175782203674,
				0.0030951641965657473,
				0.0030866952147334814,
				0.9960406422615051
			],
			"scale":[
				1,
				0.9999999403953552,
				0.9999999403953552
			],
			"translation":[
				0,
				7.3000311851501465,
				8.568167686462402e-08
			]
		},
		{
			"children":[
				16
			],
			"name":"body_top0",
			"rotation":[
				-0.03705327585339546,
				0,
				0,
				0.9993132948875427
			],
			"translation":[
				0,
				6.919447898864746,
				-7.748603820800781e-07
			]
		},
		{
			"name":"tail6_end",
			"rotation":[
				-2.9429796200020064e-07,
				2.2145880507196125e-07,
				-3.000076276293839e-08,
				1
			],
			"scale":[
				1,
				0.9999999403953552,
				0.9999999403953552
			],
			"translation":[
				2.0956605339961243e-08,
				2.5811774730682373,
				-1.2256623449502513e-07
			]
		},
		{
			"children":[
				18
			],
			"name":"tail6",
			"rotation":[
				0.025685250759124756,
				0.01694498583674431,
				-0.01981019228696823,
				0.9993301630020142
			],
			"scale":[
				0.9999998807907104,
				1,
				0.9999998807907104
			],
			"translation":[
				-5.960464477539063e-08,
				1.8403384685516357,
				2.5331974029541016e-07
			]
		},
		{
			"children":[
				19
			],
			"name":"tail5",
			"rotation":[
				-4.932808224111795e-07,
				-2.1024607121944427e-07,
				7.369089871644974e-08,
				1
			],
			"translation":[
				1.7881393432617188e-07,
				2.033298969268799,
				-1.3532117009162903e-06
			]
		},
		{
			"children":[
				20
			],
			"name":"tail4",
			"rotation":[
				0.039218198508024216,
				-0.01220706570893526,
				0.012022264301776886,
				0.9990837574005127
			],
			"scale":[
				1.0000001192092896,
				1.0000001192092896,
				1
			],
			"translation":[
				2.9802322387695312e-08,
				3.9016096591949463,
				-3.5390257835388184e-08
			]
		},
		{
			"children":[
				21
			],
			"name":"tail3",
			"rotation":[
				0.03154991567134857,
				-0.0001611632906133309,
				-0.0002391416346654296,
				0.9995021820068359
			],
			"scale":[
				0.9999999403953552,
				0.9999999403953552,
				0.9999999403953552
			],
			"translation":[
				7.450580596923828e-09,
				4.003122806549072,
				-3.25031578540802e-07
			]
		},
		{
			"children":[
				22
			],
			"name":"tail2",
			"rotation":[
				0.0027610822580754757,
				-0.0009087107027880847,
				0.0008407599525526166,
				0.9999954700469971
			],
			"scale":[
				0.9999998211860657,
				0.9999999403953552,
				0.9999998807907104
			],
			"translation":[
				7.450580596923828e-09,
				4.654557228088379,
				-4.2049214243888855e-07
			]
		},
		{
			"children":[
				23
			],
			"name":"tail1",
			"rotation":[
				0.04752126708626747,
				-0.005856161005795002,
				0.005098727997392416,
				0.9988400340080261
			],
			"scale":[
				1,
				1.0000001192092896,
				1
			],
			"translation":[
				-3.887953425874002e-08,
				1.817280650138855,
				1.8169721442973241e-06
			]
		},
		{
			"children":[
				24
			],
			"name":"tail0",
			"rotation":[
				-0.03338899090886116,
				-0.02944846823811531,
				0.025641437619924545,
				0.9986793994903564
			],
			"scale":[
				1,
				0.9999999403953552,
				1
			],
			"translation":[
				-5.960464477539063e-08,
				10.341904640197754,
				4.917383193969727e-07
			]
		},
		{
			"children":[
				25
			],
			"name":"pelvis",
			"rotation":[
				-0.00926098134368658,
				0.02832772396504879,
				-0.026874827221035957,
				0.9991944432258606
			],
			"scale":[
				0.9999999403953552,
				1,
				1
			],
			"translation":[
				0,
				11.160929679870605,
				2.1457672119140625e-06
			]
		},
		{
			"name":"leg_hind_right_toe_end",
			"rotation":[
				1.1559448060208255e-12,
				-2.7083297027274966e-06,
				-4.221994913677918e-07,
				1
			],
			"translation":[
				2.0072366169188172e-07,
				2.999997138977051,
				3.0473063361569075e-07
			]
		},
		{
			"children":[
				27
			],
			"name":"leg_hind_right_toe",
			"rotation":[
				-0.6430314183235168,
				-0.36329302191734314,
				-0.36329641938209534,
				0.5679299831390381
			],
			"scale":[
				0.9999998807907104,
				0.9999999403953552,
				1
			],
			"translation":[
				-5.960464477539062e-07,
				8.246406555175781,
				-3.5762786865234375e-07
			]
		},
		{
			"children":[
				28
			],
			"name":"leg_hind_right_ankle",
			"rotation":[
				-0.25484004616737366,
				0.5210131406784058,
				-0.18521983921527863,
				0.7932814359664917
			],
			"scale":[
				1,
				1.000000238418579,
				1.0000001192092896
			],
			"translation":[
				-3.5762786865234375e-07,
				10.170716285705566,
				-2.086162567138672e-07
			]
		},
		{
			"children":[
				29
			],
			"name":"leg_hind_right_bot0",
			"rotation":[
				1.795953963323882e-08,
				0.9334206581115723,
				-0.35550445318222046,
				0.04839947074651718
			],
			"scale":[
				1,
				1.0000001192092896,
				0.9999999403953552
			],
			"translation":[
				2.1755367640707846e-07,
				7.99989652633667,
				5.277290711092064e-07
			]
		},
		{
			"children":[
				30
			],
			"name":"leg_hind_right_top1",
			"rotation":[
				4.093509176072985e-08,
				0.569193422794342,
				0.38207170367240906,
				0.728038489818573
			],
			"scale":[
				1.0000001192092896,
				1.000000238418579,
				1.0000001192092896
			],
			"translation":[
				2.384185791015625e-07,
				9.386295318603516,
				-4.470348358154297e-07
			]
		},
		{
			"children":[
				31
			],
			"name":"leg_hind_right_top0",
			"rotation":[
				-0.6689319610595703,
				0.5281672477722168,
				-0.5010782480239868,
				0.14996670186519623
			],
			"scale":[
				1,
				0.9999996423721313,
				0.9999998807907104
			],
			"translation":[
				-0.2781611680984497,
				11.014986038208008,
				-1.363569736480713
			]
		},
		{
			"name":"leg_hind_left_toe_end",
			"rotation":[
				1.1559448060208255e-12,
				2.7083297027274966e-06,
				4.221994913677918e-07,
				1
			],
			"translation":[
				-2.0072366169188172e-07,
				2.999997138977051,
				3.0473063361569075e-07
			]
		},
		{
			"children":[
				33
			],
			"name":"leg_hind_left_toe",
			"rotation":[
				-0.6430314183235168,
				0.36329302191734314,
				0.36329641938209534,
				0.5679299831390381
			],
			"scale":[
				0.9999998807907104,
				0.9999999403953552,
				1
			],
			"translation":[
				5.960464477539062e-07,
				8.246406555175781,
				-3.5762786865234375e-07
			]
		},
		{
			"children":[
				34
			],
			"name":"leg_hind_left_ankle",
			"rotation":[
				-0.25484004616737366,
				-0.5210131406784058,
				0.18521983921527863,
				0.7932814359664917
			],
			"scale":[
				1,
				1.000000238418579,
				1.0000001192092896
			],
			"translation":[
				3.5762786865234375e-07,
				10.170716285705566,
				-2.086162567138672e-07
			]
		},
		{
			"children":[
				35
			],
			"name":"leg_hind_left_bot0",
			"rotation":[
				1.795953963323882e-08,
				-0.9334206581115723,
				0.35550445318222046,
				0.04839947074651718
			],
			"scale":[
				1,
				1.0000001192092896,
				0.9999999403953552
			],
			"translation":[
				-2.1755367640707846e-07,
				7.99989652633667,
				5.277290711092064e-07
			]
		},
		{
			"children":[
				36
			],
			"name":"leg_hind_left_top1",
			"rotation":[
				4.093509176072985e-08,
				-0.569193422794342,
				-0.38207170367240906,
				0.728038489818573
			],
			"scale":[
				1.0000001192092896,
				1.000000238418579,
				1.0000001192092896
			],
			"translation":[
				-2.384185791015625e-07,
				9.386295318603516,
				-4.470348358154297e-07
			]
		},
		{
			"children":[
				37
			],
			"name":"leg_hind_left_top0",
			"rotation":[
				-0.6689319610595703,
				-0.5281672477722168,
				0.5010782480239868,
				0.14996670186519623
			],
			"scale":[
				1,
				0.9999996423721313,
				0.9999998807907104
			],
			"translation":[
				0.2781611680984497,
				11.014986038208008,
				-1.363569736480713
			]
		},
		{
			"children":[
				26,
				32,
				38
			],
			"name":"body_bot",
			"rotation":[
				0.9979047775268555,
				0,
				0,
				0.06469984352588654
			],
			"scale":[
				1,
				1.0000001192092896,
				1.000011682510376
			],
			"translation":[
				0,
				0.9888104200363159,
				-0.11203259974718094
			]
		},
		{
			"children":[
				17,
				39
			],
			"name":"body",
			"rotation":[
				0.7337498664855957,
				0,
				0,
				0.679419755935669
			],
			"scale":[
				1,
				0.9999999403953552,
				0.9999999403953552
			],
			"translation":[
				0,
				33.35833740234375,
				0.2506487965583801
			]
		},
		{
			"children":[
				40
			],
			"name":"root",
			"rotation":[
				-0.7071031928062439,
				0,
				0,
				0.7071103453636169
			],
			"translation":[
				0,
				0,
				24.10700798034668
			]
		},
		{
			"mesh":0,
			"name":"chessur6",
			"skin":0
		},
		{
			"children":[
				42,
				41
			],
			"name":"rig",
			"rotation":[
				0.7071068286895752,
				0,
				0,
				0.7071068286895752
			]
		}
	],
	"materials":[
		{
			"doubleSided":true,
			"name":"MaterialCat.001",
			"pbrMetallicRoughness":{
				"baseColorFactor":[
					0.800000011920929,
					0.800000011920929,
					0.800000011920929,
					1
				],
				"metallicFactor":0,
				"roughnessFactor":0.5
			}
		},
		{
			"doubleSided":true,
			"name":"Material_003.001",
			"pbrMetallicRoughness":{
				"baseColorFactor":[
					0.800000011920929,
					0.800000011920929,
					0.800000011920929,
					1
				],
				"metallicFactor":0,
				"roughnessFactor":0.5
			}
		},
		{
			"doubleSided":true,
			"name":"MaterialEyes.001",
			"pbrMetallicRoughness":{
				"baseColorFactor":[
					0.800000011920929,
					0.800000011920929,
					0.800000011920929,
					1
				],
				"metallicFactor":0,
				"roughnessFactor":0.5
			}
		}
	],
	"meshes":[
		{
			"name":"chessur6",
			"primitives":[
				{
					"attributes":{
						"POSITION":0,
						"NORMAL":1,
						"TEXCOORD_0":2,
						"JOINTS_0":3,
						"WEIGHTS_0":4
					},
					"indices":5,
					"material":0
				},
				{
					"attributes":{
						"POSITION":6,
						"NORMAL":7,
						"TEXCOORD_0":8,
						"JOINTS_0":9,
						"WEIGHTS_0":10
					},
					"indices":11,
					"material":1
				},
				{
					"attributes":{
						"POSITION":12,
						"NORMAL":13,
						"TEXCOORD_0":14,
						"JOINTS_0":15,
						"WEIGHTS_0":16
					},
					"indices":17,
					"material":2
				}
			]
		}
	],
	"skins":[
		{
			"inverseBindMatrices":18,
			"joints":[
				41,
				40,
				17,
				16,
				3,
				2,
				1,
				0,
				9,
				8,
				7,
				6,
				5,
				4,
				15,
				14,
				13,
				12,
				11,
				10,
				39,
				26,
				25,
				24,
				23,
				22,
				21,
				20,
				19,
				18,
				32,
				31,
				30,
				29,
				28,
				27,
				38,
				37,
				36,
				35,
				34,
				33
			],
			"name":"rig"
		}
	],
	"accessors":[
		{
			"bufferView":0,
			"componentType":5126,
			"count":4607,
			"max":[
				11.456331253051758,
				24.10700798034668,
				42.280067443847656
			],
			"min":[
				-11.456329345703125,
				-24.107006072998047,
				-42.28007125854492
			],
			"type":"VEC3"
		},
		{
			"bufferView":1,
			"componentType":5126,
			"count":4607,
			"type":"VEC3"
		},
		{
			"bufferView":2,
			"componentType":5126,
			"count":4607,
			"type":"VEC2"
		},
		{
			"bufferView":3,
			"componentType":5121,
			"count":4607,
			"type":"VEC4"
		},
		{
			"bufferView":4,
			"componentType":5126,
			"count":4607,
			"type":"VEC4"
		},
		{
			"bufferView":5,
			"componentType":5123,
			"count":24720,
			"type":"SCALAR"
		},
		{
			"bufferView":6,
			"componentType":5126,
			"count":150,
			"max":[
				5.694182395935059,
				11.828521728515625,
				41.237403869628906
			],
			"min":[
				-5.616398334503174,
				10.000286102294922,
				39.78378677368164
			],
			"type":"VEC3"
		},
		{
			"bufferView":7,
			"componentType":5126,
			"count":150,
			"type":"VEC3"
		},
		{
			"bufferView":8,
			"componentType":5126,
			"count":150,
			"type":"VEC2"
		},
		{
			"bufferView":9,
			"componentType":5121,
			"count":150,
			"type":"VEC4"
		},
		{
			"bufferView":10,
			"componentType":5126,
			"count":150,
			"type":"VEC4"
		},
		{
			"bufferView":11,
			"componentType":5123,
			"count":594,
			"type":"SCALAR"
		},
		{
			"bufferView":12,
			"componentType":5126,
			"count":122,
			"max":[
				5.652868747711182,
				17.26064109802246,
				39.327144622802734
			],
			"min":[
				-5.652866840362549,
				12.930670738220215,
				35.69297409057617
			],
			"type":"VEC3"
		},
		{
			"bufferView":13,
			"componentType":5126,
			"count":122,
			"type":"VEC3"
		},
		{
			"bufferView":14,
			"componentType":5126,
			"count":122,
			"type":"VEC2"
		},
		{
			"bufferView":15,
			"componentType":5121,
			"count":122,
			"type":"VEC4"
		},
		{
			"bufferView":16,
			"componentType":5126,
			"count":122,
			"type":"VEC4"
		},
		{
			"bufferView":17,
			"componentType":5123,
			"count":648,
			"type":"SCALAR"
		},
		{
			"bufferView":18,
			"componentType":5126,
			"count":42,
			"type":"MAT4"
		}
	],
	"bufferViews":[
		{
			"buffer":0,
			"byteLength":55284,
			"byteOffset":0,
			"target":34962
		},
		{
			"buffer":0,
			"byteLength":55284,
			"byteOffset":55284,
			"target":34962
		},
		{
			"buffer":0,
			"byteLength":36856,
			"byteOffset":110568,
			"target":34962
		},
		{
			"buffer":0,
			"byteLength":18428,
			"byteOffset":147424,
			"target":34962
		},
		{
			"buffer":0,
			"byteLength":73712,
			"byteOffset":165852,
			"target":34962
		},
		{
			"buffer":0,
			"byteLength":49440,
			"byteOffset":239564,
			"target":34963
		},
		{
			"buffer":0,
			"byteLength":1800,
			"byteOffset":289004,
			"target":34962
		},
		{
			"buffer":0,
			"byteLength":1800,
			"byteOffset":290804,
			"target":34962
		},
		{
			"buffer":0,
			"byteLength":1200,
			"byteOffset":292604,
			"target":34962
		},
		{
			"buffer":0,
			"byteLength":600,
			"byteOffset":293804,
			"target":34962
		},
		{
			"buffer":0,
			"byteLength":2400,
			"byteOffset":294404,
			"target":34962
		},
		{
			"buffer":0,
			"byteLength":1188,
			"byteOffset":296804,
			"target":34963
		},
		{
			"buffer":0,
			"byteLength":1464,
			"byteOffset":297992,
			"target":34962
		},
		{
			"buffer":0,
			"byteLength":1464,
			"byteOffset":299456,
			"target":34962
		},
		{
			"buffer":0,
			"byteLength":976,
			"byteOffset":300920,
			"target":34962
		},
		{
			"buffer":0,
			"byteLength":488,
			"byteOffset":301896,
			"target":34962
		},
		{
			"buffer":0,
			"byteLength":1952,
			"byteOffset":302384,
			"target":34962
		},
		{
			"buffer":0,
			"byteLength":1296,
			"byteOffset":304336,
			"target":34963
		},
		{
			"buffer":0,
			"byteLength":2688,
			"byteOffset":305632
		}
	],
	"buffers":[
		{
			"byteLength":308320,
			"uri":"chessur6.bin"
		}
	]
}
